<?xml version="1.0" standalone="yes"?>
<svg xmlns="http://www.w3.org/2000/svg" width="466" height="108">
<path style="fill:#fdfcfe; stroke:none;" d="M0 0L0 46L1 46C2.81635 23.762 24.5093 2.02769 47 1C34.8234 -4.10953 13.2649 0 0 0z"/>
<path style="fill:#a6a1c0; stroke:none;" d="M47 0L47 1L53 1L47 0z"/>
<path style="fill:#595959; stroke:none;" d="M53.6667 0.333336L54.3333 0.666664L53.6667 0.333336z"/>
<path style="fill:#a6a1c0; stroke:none;" d="M55 0L55 1L61 1L55 0z"/>
<path style="fill:#fdfcfe; stroke:none;" d="M61 0L61 1C122.103 3.79205 122.103 104.208 61 107L61 108L466 108L466 83L455 83C455 76.5936 458.013 59.4937 453.258 54.7423C450.102 51.5892 444.361 53.1897 442.742 57.0586C439.829 64.0207 442 75.5116 442 83L431 83C431 75.463 433.119 64.1124 430.106 57.1088C428.237 52.7611 421.865 51.7653 418.742 55.4336C414.144 60.8356 417 76.2068 417 83L406 83L406 44C409.987 44.0031 413.668 43.4024 416 47C424.88 43.4549 431.837 40.5678 439 49C447.753 41.5052 459 40.5366 465 52L466 52L466 0L61 0z"/>
<path style="fill:#a6a1c0; stroke:none;" d="M41.6667 1.33334L42.3333 1.66666L41.6667 1.33334z"/>
<path style="fill:#595959; stroke:none;" d="M43 1L44 2L43 1z"/>
<path style="fill:#5535d4; stroke:none;" d="M44 1.46374C-11.1329 11.2091 -13.8212 91.7313 40 105.844C48.2369 108.004 56.6618 108.077 65 106.536C119.656 96.4358 121.309 16.0173 68 2.37808C60.5828 0.480385 51.5668 0.126213 44 1.46374z"/>
<path style="fill:#595959; stroke:none;" d="M64 1L65 2L64 1z"/>
<path style="fill:#a6a1c0; stroke:none;" d="M65.6667 1.33334L66.3333 1.66666L65.6667 1.33334M38 2L39 3L38 2z"/>
<path style="fill:#595959; stroke:none;" d="M39 2L40 3L39 2M68 2L69 3L68 2z"/>
<path style="fill:#a6a1c0; stroke:none;" d="M69 2L70 3L69 2M35 3L36 4L35 3M72 3L73 4L72 3M32 4L33 5L32 4z"/>
<path style="fill:#595959; stroke:none;" d="M33 4L34 5L33 4M74 4L75 5L74 4z"/>
<path style="fill:#a6a1c0; stroke:none;" d="M75 4L76 5L75 4M30 5L31 6L30 5M77 5L78 6L77 5M28 6L29 7L28 6M79 6L80 7L79 6M26 7L27 8L26 7M81 7L82 8L81 7M25 8L26 9L25 8z"/>
<path style="fill:#595959; stroke:none;" d="M82 8L83 9L82 8z"/>
<path style="fill:#a6a1c0; stroke:none;" d="M23 9L24 10L23 9M84 9L85 10L84 9M22 10L23 11L22 10z"/>
<path style="fill:#595959; stroke:none;" d="M85 10L86 11L85 10z"/>
<path style="fill:#a6a1c0; stroke:none;" d="M19 12L20 13L19 12M88 12L89 13L88 12M18 13L19 14L18 13M89 13L90 14L89 13M17 14L18 15L17 14M90 14L91 15L90 14M16 15L17 16L16 15M91 15L92 16L91 15M15 16L16 17L15 16M92 16L93 17L92 16M14 17L15 18L14 17M93 17L94 18L93 17M13 18L14 19L13 18M94 18L95 19L94 18M12 19L13 20L12 19z"/>
<path style="fill:#595959; stroke:none;" d="M44 19L45 20L44 19z"/>
<path style="fill:#a6a1c0; stroke:none;" d="M45 19L45 20L51 20L45 19z"/>
<path style="fill:#595959; stroke:none;" d="M51 19L52 20L51 19z"/>
<path style="fill:#a6a1c0; stroke:none;" d="M95 19L96 20L95 19M39.6667 20.3333L40.3333 20.6667L39.6667 20.3333z"/>
<path style="fill:#fdfcfe; stroke:none;" d="M83 55C82.8782 49.0994 81.7824 43.2764 79.0147 38C57.7862 -2.46893 -6.02641 32.5618 17.9267 72C20.9881 77.0405 25.0308 80.975 30 84.1235C36.5993 88.3048 43.2604 89.9881 51 90C60.3786 90.0145 68.6928 88.223 77 83.6875C82.2173 80.839 105.958 63.0915 94.7569 56.0278C91.6746 54.084 86.4894 55 83 55z"/>
<path style="fill:#a6a1c0; stroke:none;" d="M55.6667 20.3333L56.3333 20.6667L55.6667 20.3333M96 20L97 21L96 20z"/>
<path style="fill:#595959; stroke:none;" d="M35 21L36 22L35 21z"/>
<path style="fill:#a6a1c0; stroke:none;" d="M36 21L37 22L36 21M59 21L60 22L59 21z"/>
<path style="fill:#595959; stroke:none;" d="M10 22L11 23L10 22z"/>
<path style="fill:#a6a1c0; stroke:none;" d="M33 22L34 23L33 22M62 22L63 23L62 22z"/>
<path style="fill:#595959; stroke:none;" d="M97 22L98 23L97 22z"/>
<path style="fill:#a6a1c0; stroke:none;" d="M9 23L10 24L9 23M31 23L32 24L31 23M64 23L65 24L64 23M98 23L99 24L98 23z"/>
<path style="fill:#595959; stroke:none;" d="M29 24L30 25L29 24M66 24L67 25L66 24M8 25L9 26L8 25z"/>
<path style="fill:#a6a1c0; stroke:none;" d="M28 25L29 26L28 25M67 25L68 26L67 25M193 25L193 26L204 26L193 25M7 26L8 27L7 26z"/>
<path style="fill:#595959; stroke:none;" d="M26 26L27 27L26 26z"/>
<path style="fill:#a6a1c0; stroke:none;" d="M100 26L101 27L100 26M146 26L146 27L169 27L146 26z"/>
<path style="fill:#595959; stroke:none;" d="M193 26L193 83L194 83L194 44L193 26z"/>
<path style="fill:#020202; stroke:none;" d="M194 26L194 83L204 83C204 75.7395 200.175 53.6626 211 52.662C222.707 51.5799 219 76.2672 219 83L229 83C229 70.1022 233.508 38.2785 211.002 43.5324C208.32 44.1585 206.239 45.4763 204 47L204 26L194 26z"/>
<path style="fill:#a6a1c0; stroke:none;" d="M25 27L26 28L25 27M70 27L71 28L70 27z"/>
<path style="fill:#020202; stroke:none;" d="M146 27C149.615 42.1844 149.615 67.8155 146 83L157 83C157 78.088 154.691 65.1055 159.318 62.0278C166.582 57.1952 175.677 64.0181 182.348 54.956C188.909 46.0439 185.492 32.4174 175 28.4028C166.455 25.1332 155.021 27 146 27z"/>
<path style="fill:#595959; stroke:none;" d="M172 27L173 28L172 27z"/>
<path style="fill:#a6a1c0; stroke:none;" d="M173 27L174 28L173 27M6 28L7 29L6 28M24 28L25 29L24 28M71 28L72 29L71 28M101 28L102 29L101 28z"/>
<path style="fill:#595959; stroke:none;" d="M146 28L146 82L147 82L147 46L146 28M175 28L176 29L175 28z"/>
<path style="fill:#a6a1c0; stroke:none;" d="M176 28L177 29L176 28M72 29L73 30L72 29M5 30L6 31L5 30M73 30L74 31L73 30M102 30L103 31L102 30M179 30L180 31L179 30M21 31L22 32L21 31M74 31L75 32L74 31z"/>
<path style="fill:#595959; stroke:none;" d="M180 31L181 32L180 31z"/>
<path style="fill:#a6a1c0; stroke:none;" d="M4 32L5 33L4 32M20 32L21 33L20 32M75 32L76 33L75 32M103 32L104 33L103 32z"/>
<path style="fill:#595959; stroke:none;" d="M181 32L182 33L181 32M333 32L333 38L334 38L334 33L342 33L342 44L343 44L343 32L333 32M19 33L20 34L19 33z"/>
<path style="fill:#a6a1c0; stroke:none;" d="M182 33L183 34L182 33z"/>
<path style="fill:#020202; stroke:none;" d="M334 33C333.482 39.284 331.685 43.2529 325 44L325 53C338.543 53.441 330.117 68.5841 333.707 76.9846C336.62 83.8017 343.831 83 350 83L350 74C338.929 74.4057 338.206 53.3841 350 53L350 44L342 44L342 33L334 33z"/>
<path style="fill:#a6a1c0; stroke:none;" d="M3.33333 34.6667L3.66667 35.3333L3.33333 34.6667M104 34L105 35L104 34M77 35L78 36L77 35z"/>
<path style="fill:#595959; stroke:none;" d="M104 35L105 36L104 35M183 35L184 36L183 35z"/>
<path style="fill:#a6a1c0; stroke:none;" d="M17 36L18 37L17 36M157 36L157 52L158 52L157 36z"/>
<path style="fill:#fdfcfe; stroke:none;" d="M158 36L158 52C164.048 52 183.76 48.2053 171.721 38.6034C168.333 35.9008 162.12 36.9808 158 36z"/>
<path style="fill:#a6a1c0; stroke:none;" d="M159 36L159 37L169 37L159 36z"/>
<path style="fill:#595959; stroke:none;" d="M169 36L170 37L169 36z"/>
<path style="fill:#a6a1c0; stroke:none;" d="M184 36L185 37L184 36M2.33333 37.6667L2.66667 38.3333L2.33333 37.6667M105 37L106 38L105 37z"/>
<path style="fill:#595959; stroke:none;" d="M171 37L172 38L171 37M184 37L185 38L184 37z"/>
<path style="fill:#a6a1c0; stroke:none;" d="M16 38L17 39L16 38M79 38L80 39L79 38M172 38L173 39L172 38z"/>
<path style="fill:#595959; stroke:none;" d="M173 39L174 40L173 39z"/>
<path style="fill:#a6a1c0; stroke:none;" d="M185 39L186 40L185 39M15 40L16 41L15 40z"/>
<path style="fill:#595959; stroke:none;" d="M80 40L81 41L80 40z"/>
<path style="fill:#a6a1c0; stroke:none;" d="M106.333 40.6667L106.667 41.3333L106.333 40.6667z"/>
<path style="fill:#595959; stroke:none;" d="M185 40L186 41L185 40z"/>
<path style="fill:#a6a1c0; stroke:none;" d="M332 40L333 41L332 40M1 41L2 42L1 41M80 41L81 42L80 41M174.333 41.6667L174.667 42.3333L174.333 41.6667z"/>
<path style="fill:#595959; stroke:none;" d="M332 41L333 42L332 41M1 42L2 43L1 42M14 42L15 43L14 42M331 42L332 43L331 42z"/>
<path style="fill:#a6a1c0; stroke:none;" d="M14 43L15 44L14 43M27 43L28 44L27 43z"/>
<path style="fill:#595959; stroke:none;" d="M28 43L29 44L28 43z"/>
<path style="fill:#a6a1c0; stroke:none;" d="M29.6667 43.3333L30.3333 43.6667L29.6667 43.3333M44 43L44 44L47 44L44 43M81 43L82 44L81 43M209.667 43.3333L210.333 43.6667L209.667 43.3333z"/>
<path style="fill:#595959; stroke:none;" d="M218 43L219 44L218 43z"/>
<path style="fill:#a6a1c0; stroke:none;" d="M219 43L220 44L219 43M249 43L250 44L249 43z"/>
<path style="fill:#595959; stroke:none;" d="M250 43L251 44L250 43z"/>
<path style="fill:#020202; stroke:none;" d="M239 56C241.318 56.1813 244.379 57.1037 246.625 56.311C250.16 55.063 251.574 50.7958 255.996 51.4267C259.075 51.866 262.609 55.4734 259.623 58.2577C253.957 63.5415 243.641 58.6576 239.179 67.044C230.318 83.6979 253.801 85.194 263 79L263 83L272 83C272 73.2781 275.373 55.9264 268.606 48.1088C260.099 38.281 240.479 42.7187 239 56z"/>
<path style="fill:#595959; stroke:none;" d="M260 43L261 44L260 43z"/>
<path style="fill:#a6a1c0; stroke:none;" d="M261 43L262 44L261 43M300 43L301 44L300 43z"/>
<path style="fill:#595959; stroke:none;" d="M301 43L302 44L301 43z"/>
<path style="fill:#020202; stroke:none;" d="M293 49L293 44L283 44L283 83L293 83C293 76.4914 289.787 49.2104 302.956 53.0023C312.418 55.7269 309 75.7044 309 83L319 83C319 71.0682 322.65 35.4016 300.002 44.1466C297.231 45.2162 295.18 47.057 293 49z"/>
<path style="fill:#595959; stroke:none;" d="M308 43L309 44L308 43z"/>
<path style="fill:#a6a1c0; stroke:none;" d="M309 43L310 44L309 43M329 43L330 44L329 43M370.667 43.3333L371.333 43.6667L370.667 43.3333z"/>
<path style="fill:#595959; stroke:none;" d="M372 43L373 44L372 43z"/>
<path style="fill:#020202; stroke:none;" d="M373 43.4676C347.304 48.284 355.011 88.2284 381 83.6713C406.775 79.1517 399.04 38.5867 373 43.4676z"/>
<path style="fill:#595959; stroke:none;" d="M381 43L382 44L381 43z"/>
<path style="fill:#a6a1c0; stroke:none;" d="M382.667 43.3333L383.333 43.6667L382.667 43.3333M423 43L424 44L423 43z"/>
<path style="fill:#020202; stroke:none;" d="M416 48L416 44L406 44L406 83L416 83C416 76.5962 412.524 50.09 424.996 52.956C434.689 55.1833 431 75.7174 431 83L441 83C441 76.4603 437.492 51.5816 449 52.662C459.74 53.6704 456 75.8403 456 83L466 83C466 73.4116 468.413 59.9039 464.347 51.0039C459.756 40.9544 446.264 41.0733 440 49C432.113 41.9692 424.435 41.6968 416 48z"/>
<path style="fill:#595959; stroke:none;" d="M431 43L432 44L431 43z"/>
<path style="fill:#a6a1c0; stroke:none;" d="M432 43L433 44L432 43M446 43L447 44L446 43z"/>
<path style="fill:#595959; stroke:none;" d="M447 43L448 44L447 43M455 43L456 44L455 43z"/>
<path style="fill:#a6a1c0; stroke:none;" d="M456 43L457 44L456 43z"/>
<path style="fill:#5535d4; stroke:none;" d="M26.6026 45.0324C23.1731 47.6754 24.4085 62.4625 30.6867 58.9136C35.5167 56.1833 33.2228 39.9304 26.6026 45.0324z"/>
<path style="fill:#a6a1c0; stroke:none;" d="M42 44L41 46L42 44z"/>
<path style="fill:#5535d4; stroke:none;" d="M43.3171 45.0471C38.6642 47.9095 40.6372 63.2002 47.5671 58.8017C52.2799 55.8105 50.3217 40.7379 43.3171 45.0471z"/>
<path style="fill:#a6a1c0; stroke:none;" d="M48 44L49 45L48 44M207 44L208 45L207 44z"/>
<path style="fill:#595959; stroke:none;" d="M221 44L222 45L221 44z"/>
<path style="fill:#a6a1c0; stroke:none;" d="M246 44L247 45L246 44M264 44L265 45L264 44M293 44L293 48L294 48L293 44z"/>
<path style="fill:#595959; stroke:none;" d="M298 44L299 45L298 44M311 44L312 45L311 44M350 44L350 53L351 53L350 44z"/>
<path style="fill:#a6a1c0; stroke:none;" d="M368 44L369 45L368 44M385 44L386 45L385 44M420 44L421 45L420 44z"/>
<path style="fill:#595959; stroke:none;" d="M434 44L435 45L434 44z"/>
<path style="fill:#a6a1c0; stroke:none;" d="M444 44L445 45L444 44z"/>
<path style="fill:#595959; stroke:none;" d="M458 44L459 45L458 44z"/>
<path style="fill:#a6a1c0; stroke:none;" d="M49 45L50 46L49 45M107 45L107 48L108 48L107 45M205 45L206 46L205 45M223 45L224 46L223 45M266 45L267 46L266 45z"/>
<path style="fill:#595959; stroke:none;" d="M296 45L297 46L296 45z"/>
<path style="fill:#a6a1c0; stroke:none;" d="M313 45L314 46L313 45z"/>
<path style="fill:#595959; stroke:none;" d="M366 45L367 46L366 45z"/>
<path style="fill:#a6a1c0; stroke:none;" d="M387 45L388 46L387 45z"/>
<path style="fill:#595959; stroke:none;" d="M419 45L420 46L419 45z"/>
<path style="fill:#a6a1c0; stroke:none;" d="M436 45L437 46L436 45M442 45L443 46L442 45M460 45L461 46L460 45M0 46L0 49L1 49L0 46M13.3333 46.6667L13.6667 47.3333L13.3333 46.6667M24 46L24 57L25 57L24 46M33 46L33 57L34 57L33 46M82 46L82 49L83 49L82 46M174 46L175 47L174 46M204 46L205 47L204 46z"/>
<path style="fill:#595959; stroke:none;" d="M224 46L225 47L224 46z"/>
<path style="fill:#a6a1c0; stroke:none;" d="M243 46L244 47L243 46z"/>
<path style="fill:#595959; stroke:none;" d="M267 46L268 47L267 46M295 46L296 47L295 46z"/>
<path style="fill:#a6a1c0; stroke:none;" d="M314 46L315 47L314 46z"/>
<path style="fill:#595959; stroke:none;" d="M325 46L325 52L326 52L325 46z"/>
<path style="fill:#a6a1c0; stroke:none;" d="M364 46L365 47L364 46M389 46L390 47L389 46M437 46L438 47L437 46M441 46L442 47L441 46z"/>
<path style="fill:#595959; stroke:none;" d="M461 46L462 47L461 46M174 47L175 48L174 47M185 47L186 48L185 47M225 47L226 48L225 47z"/>
<path style="fill:#a6a1c0; stroke:none;" d="M242 47L243 48L242 47z"/>
<path style="fill:#595959; stroke:none;" d="M268 47L269 48L268 47M294 47L295 48L294 47z"/>
<path style="fill:#a6a1c0; stroke:none;" d="M315 47L316 48L315 47M363 47L364 48L363 47M390 47L391 48L390 47M416 47L417 48L416 47M440 47L441 48L440 47z"/>
<path style="fill:#595959; stroke:none;" d="M462 47L463 48L462 47z"/>
<path style="fill:#a6a1c0; stroke:none;" d="M185.333 48.6667L185.667 49.3333L185.333 48.6667M226 48L227 49L226 48M241 48L242 49L241 48M269 48L270 49L269 48z"/>
<path style="fill:#595959; stroke:none;" d="M293 48L294 49L293 48M362 48L363 49L362 48M391 48L392 49L391 48z"/>
<path style="fill:#a6a1c0; stroke:none;" d="M463 48L464 49L463 48M240 49L241 50L240 49z"/>
<path style="fill:#595959; stroke:none;" d="M361 49L362 50L361 49z"/>
<path style="fill:#a6a1c0; stroke:none;" d="M392 49L393 50L392 49z"/>
<path style="fill:#595959; stroke:none;" d="M172 50L173 51L172 50z"/>
<path style="fill:#a6a1c0; stroke:none;" d="M227 50L228 51L227 50z"/>
<path style="fill:#595959; stroke:none;" d="M270 50L271 51L270 50z"/>
<path style="fill:#a6a1c0; stroke:none;" d="M317 50L318 51L317 50M360 50L361 51L360 50M393 50L394 51L393 50z"/>
<path style="fill:#595959; stroke:none;" d="M464 50L465 51L464 50M12 51L13 52L12 51z"/>
<path style="fill:#a6a1c0; stroke:none;" d="M170 51L171 52L170 51z"/>
<path style="fill:#595959; stroke:none;" d="M184 51L185 52L184 51z"/>
<path style="fill:#a6a1c0; stroke:none;" d="M239 51L240 52L239 51z"/>
<path style="fill:#595959; stroke:none;" d="M252 51L253 52L252 51z"/>
<path style="fill:#a6a1c0; stroke:none;" d="M253 51L253 52L258 52L253 51z"/>
<path style="fill:#595959; stroke:none;" d="M258 51L259 52L258 51M317 51L318 52L317 51z"/>
<path style="fill:#a6a1c0; stroke:none;" d="M12 52L12 57L13 57L12 52z"/>
<path style="fill:#595959; stroke:none;" d="M157 52L157 53L168 53L157 52M209 52L210 53L209 52z"/>
<path style="fill:#a6a1c0; stroke:none;" d="M210.667 52.3333L211.333 52.6667L210.667 52.3333z"/>
<path style="fill:#595959; stroke:none;" d="M212.667 52.3333L213.333 52.6667L212.667 52.3333z"/>
<path style="fill:#a6a1c0; stroke:none;" d="M228 52L229 53L228 52z"/>
<path style="fill:#595959; stroke:none;" d="M250 52L251 53L250 52z"/>
<path style="fill:#a6a1c0; stroke:none;" d="M259 52L260 53L259 52M271 52L272 53L271 52z"/>
<path style="fill:#595959; stroke:none;" d="M299 52L300 53L299 52z"/>
<path style="fill:#a6a1c0; stroke:none;" d="M300.667 52.3333L301.333 52.6667L300.667 52.3333z"/>
<path style="fill:#595959; stroke:none;" d="M302 52L303 53L302 52M359 52L360 53L359 52M374 52L375 53L374 52z"/>
<path style="fill:#a6a1c0; stroke:none;" d="M375 52L375 53L379 53L375 52z"/>
<path style="fill:#595959; stroke:none;" d="M379 52L380 53L379 52M394 52L395 53L394 52M422 52L423 53L422 52z"/>
<path style="fill:#a6a1c0; stroke:none;" d="M423.667 52.3333L424.333 52.6667L423.667 52.3333z"/>
<path style="fill:#595959; stroke:none;" d="M425 52L426 53L425 52M446.667 52.3333L447.333 52.6667L446.667 52.3333z"/>
<path style="fill:#a6a1c0; stroke:none;" d="M448.667 52.3333L449.333 52.6667L448.667 52.3333z"/>
<path style="fill:#595959; stroke:none;" d="M450 52L451 53L450 52z"/>
<path style="fill:#a6a1c0; stroke:none;" d="M465.333 52.6667L465.667 53.3333L465.333 52.6667z"/>
<path style="fill:#595959; stroke:none;" d="M183 53L184 54L183 53z"/>
<path style="fill:#a6a1c0; stroke:none;" d="M207 53L208 54L207 53z"/>
<path style="fill:#595959; stroke:none;" d="M215 53L216 54L215 53M228 53L229 54L228 53M249 53L250 54L249 53z"/>
<path style="fill:#a6a1c0; stroke:none;" d="M297 53L298 54L297 53z"/>
<path style="fill:#595959; stroke:none;" d="M305 53L306 54L305 53z"/>
<path style="fill:#a6a1c0; stroke:none;" d="M318.333 53.6667L318.667 54.3333L318.333 53.6667M325 53L325 54L332 54L325 53M343 53L343 54L351 54L343 53M358 53L359 54L358 53M372 53L373 54L372 53z"/>
<path style="fill:#fdfcfe; stroke:none;" d="M373.044 53.7423C361.585 58.3835 368.541 78.2862 380.956 73.2577C392.415 68.6165 385.459 48.7138 373.044 53.7423z"/>
<path style="fill:#a6a1c0; stroke:none;" d="M381 53L382 54L381 53M395 53L396 54L395 53M420 53L421 54L420 53M427 53L428 54L427 53z"/>
<path style="fill:#595959; stroke:none;" d="M444 53L445 54L444 53z"/>
<path style="fill:#a6a1c0; stroke:none;" d="M452 53L453 54L452 53M83 54L83 55L94 55L83 54M206 54L207 55L206 54M216 54L217 55L216 54M238.333 54.6667L238.667 55.3333L238.333 54.6667M261 54L262 55L261 54z"/>
<path style="fill:#595959; stroke:none;" d="M306 54L307 55L306 54M332 54L332 71L333 71L332 54M342 54L342 71L343 71L342 54M358 54L359 55L358 54M370 54L371 55L370 54M383 54L384 55L383 54M395 54L396 55L395 54M418 54L419 55L418 54M443 54L444 55L443 54M465 54L466 55L465 54z"/>
<path style="fill:#a6a1c0; stroke:none;" d="M95 55L96 56L95 55M205 55L206 56L205 55z"/>
<path style="fill:#595959; stroke:none;" d="M217 55L218 56L217 55z"/>
<path style="fill:#a6a1c0; stroke:none;" d="M248 55L249 56L248 55z"/>
<path style="fill:#595959; stroke:none;" d="M318 55L319 56L318 55M369 55L370 56L369 55M384 55L385 56L384 55z"/>
<path style="fill:#a6a1c0; stroke:none;" d="M454 55L455 56L454 55M96 56L97 57L96 56M181 56L182 57L181 56z"/>
<path style="fill:#595959; stroke:none;" d="M204 56L205 57L204 56z"/>
<path style="fill:#a6a1c0; stroke:none;" d="M241.667 56.3333L242.333 56.6667L241.667 56.3333z"/>
<path style="fill:#595959; stroke:none;" d="M243 56L244 57L243 56z"/>
<path style="fill:#a6a1c0; stroke:none;" d="M272 56L272 81L273 81L272 56M294 56L295 57L294 56M307 56L308 57L307 56M357 56L358 57L357 56M396 56L397 57L396 56M417 56L418 57L417 56z"/>
<path style="fill:#595959; stroke:none;" d="M430 56L431 57L430 56z"/>
<path style="fill:#a6a1c0; stroke:none;" d="M442 56L443 57L442 56M49 57L50 58L49 57M97.3333 57.6667L97.6667 58.3333L97.3333 57.6667M180 57L181 58L180 57M204 57L205 58L204 57z"/>
<path style="fill:#595959; stroke:none;" d="M218.333 57.6667L218.667 58.3333L218.333 57.6667z"/>
<path style="fill:#a6a1c0; stroke:none;" d="M246.667 57.3333L247.333 57.6667L246.667 57.3333M261 57L262 58L261 57z"/>
<path style="fill:#595959; stroke:none;" d="M357 57L358 58L357 57z"/>
<path style="fill:#a6a1c0; stroke:none;" d="M368 57L369 58L368 57M385 57L386 58L385 57M430 57L431 58L430 57M455 57L455 83L456 83L455 57M25 58L26 59L25 58M32 58L33 59L32 58M260 58L261 59L260 58z"/>
<path style="fill:#595959; stroke:none;" d="M416 58L416 83L417 83L416 58M441 58L442 59L441 58z"/>
<path style="fill:#a6a1c0; stroke:none;" d="M0 59L0 63L1 63L0 59M26 59L27 60L26 59M31 59L32 60L31 59M47 59L48 60L47 59M177 59L178 60L177 59M218 59L218 83L219 83L218 59M255.667 59.3333L256.333 59.6667L255.667 59.3333z"/>
<path style="fill:#595959; stroke:none;" d="M257.667 59.3333L258.333 59.6667L257.667 59.3333M293 59L293 83L294 83L293 59M308 59L308 83L309 83L308 59z"/>
<path style="fill:#a6a1c0; stroke:none;" d="M356 59L356 62L357 62L356 59M367.333 59.6667L367.667 60.3333L367.333 59.6667z"/>
<path style="fill:#595959; stroke:none;" d="M386 59L387 60L386 59z"/>
<path style="fill:#a6a1c0; stroke:none;" d="M397 59L397 68L398 68L397 59M441 59L441 83L442 83L441 59M97.3333 60.6667L97.6667 61.3333L97.3333 60.6667M107 60L107 63L108 63L107 60z"/>
<path style="fill:#595959; stroke:none;" d="M174 60L175 61L174 60z"/>
<path style="fill:#a6a1c0; stroke:none;" d="M175 60L176 61L175 60M248.667 60.3333L249.333 60.6667L248.667 60.3333z"/>
<path style="fill:#595959; stroke:none;" d="M250.667 60.3333L251.333 60.6667L250.667 60.3333z"/>
<path style="fill:#a6a1c0; stroke:none;" d="M386 60L387 61L386 60M13.3333 61.6667L13.6667 62.3333L13.3333 61.6667z"/>
<path style="fill:#595959; stroke:none;" d="M158 61L158 62L168 62L158 61M169.667 61.3333L170.333 61.6667L169.667 61.3333z"/>
<path style="fill:#a6a1c0; stroke:none;" d="M171.667 61.3333L172.333 61.6667L171.667 61.3333M245 61L246 62L245 61z"/>
<path style="fill:#595959; stroke:none;" d="M246 61L247 62L246 61z"/>
<path style="fill:#a6a1c0; stroke:none;" d="M243 62L244 63L243 62z"/>
<path style="fill:#595959; stroke:none;" d="M356 62L356 65L357 65L356 62z"/>
<path style="fill:#fdfcfe; stroke:none;" d="M0 63L0 108L47 108L47 107C20.2865 105.779 9.91725 83.4696 0 63z"/>
<path style="fill:#a6a1c0; stroke:none;" d="M157 63L157 83L158 83L157 63M96 64L97 65L96 64M240 64L241 65L240 64M14 65L15 66L14 65z"/>
<path style="fill:#595959; stroke:none;" d="M260.667 65.3333L261.333 65.6667L260.667 65.3333z"/>
<path style="fill:#a6a1c0; stroke:none;" d="M356 65L356 68L357 68L356 65M1.33333 66.6667L1.66667 67.3333L1.33333 66.6667M95 66L96 67L95 66M106.333 66.6667L106.667 67.3333L106.333 66.6667z"/>
<path style="fill:#595959; stroke:none;" d="M253.667 66.3333L254.333 66.6667L253.667 66.3333z"/>
<path style="fill:#a6a1c0; stroke:none;" d="M255.667 66.3333L256.333 66.6667L255.667 66.3333z"/>
<path style="fill:#fdfcfe; stroke:none;" d="M262 66C259.966 66.0876 258 66.2214 255.996 66.6196C241.984 69.4038 254.14 81.2262 260.062 72.7731C261.444 70.8007 261.681 68.3048 262 66z"/>
<path style="fill:#a6a1c0; stroke:none;" d="M367.333 66.6667L367.667 67.3333L367.333 66.6667M386.333 66.6667L386.667 67.3333L386.333 66.6667M15 67L16 68L15 67M238 67L239 68L238 67z"/>
<path style="fill:#595959; stroke:none;" d="M250 67L251 68L250 67z"/>
<path style="fill:#a6a1c0; stroke:none;" d="M251 67L252 68L251 67M94 68L95 69L94 68M249 68L250 69L249 68M16 69L17 70L16 69M93 69L94 70L93 69z"/>
<path style="fill:#595959; stroke:none;" d="M248 69L249 70L248 69z"/>
<path style="fill:#a6a1c0; stroke:none;" d="M261.333 69.6667L261.667 70.3333L261.333 69.6667M368 69L369 70L368 69M385 69L386 70L385 69M2 70L3 71L2 70M105 70L106 71L105 70M237 70L237 75L238 75L237 70M248 70L249 71L248 70M357 70L358 71L357 70M396 70L397 71L396 70M17 71L18 72L17 71z"/>
<path style="fill:#595959; stroke:none;" d="M261 71L262 72L261 71M369 71L370 72L369 71M384 71L385 72L384 71z"/>
<path style="fill:#a6a1c0; stroke:none;" d="M91 72L92 73L91 72z"/>
<path style="fill:#595959; stroke:none;" d="M332.333 72.6667L332.667 73.3333L332.333 72.6667z"/>
<path style="fill:#a6a1c0; stroke:none;" d="M343 72L344 73L343 72z"/>
<path style="fill:#595959; stroke:none;" d="M358 72L359 73L358 72M370 72L371 73L370 72M383 72L384 73L383 72M395 72L396 73L395 72z"/>
<path style="fill:#a6a1c0; stroke:none;" d="M3 73L4 74L3 73M90 73L91 74L90 73M104 73L105 74L104 73M248 73L249 74L248 73M344 73L345 74L344 73M358 73L359 74L358 73M372 73L373 74L372 73M381 73L382 74L381 73M395 73L396 74L395 73M19 74L20 75L19 74M89 74L90 75L89 74z"/>
<path style="fill:#595959; stroke:none;" d="M259 74L260 75L259 74z"/>
<path style="fill:#a6a1c0; stroke:none;" d="M332.333 74.6667L332.667 75.3333L332.333 74.6667z"/>
<path style="fill:#595959; stroke:none;" d="M346 74L346 75L349 75L346 74M350 74L350 83L351 83L350 74M359 74L360 75L359 74M374 74L375 75L374 74z"/>
<path style="fill:#a6a1c0; stroke:none;" d="M375 74L375 75L379 75L375 74z"/>
<path style="fill:#595959; stroke:none;" d="M379 74L380 75L379 74M394 74L395 75L394 74z"/>
<path style="fill:#a6a1c0; stroke:none;" d="M4 75L5 76L4 75M20 75L21 76L20 75M88 75L89 76L88 75M103 75L104 76L103 75M250 75L251 76L250 75M257 75L258 76L257 75M87 76L88 77L87 76z"/>
<path style="fill:#595959; stroke:none;" d="M238 76L239 77L238 76M252 76L252 77L255 77L252 76z"/>
<path style="fill:#a6a1c0; stroke:none;" d="M360 76L361 77L360 76M393 76L394 77L393 76M5 77L6 78L5 77M86 77L87 78L86 77M102 77L103 78L102 77M333 77L334 78L333 77z"/>
<path style="fill:#595959; stroke:none;" d="M361 77L362 78L361 77M392 77L393 78L392 77M239 78L240 79L239 78M362 78L363 79L362 78M391 78L392 79L391 78z"/>
<path style="fill:#a6a1c0; stroke:none;" d="M6 79L7 80L6 79M83 79L84 80L83 79M101 79L102 80L101 79z"/>
<path style="fill:#595959; stroke:none;" d="M261 79L262 80L261 79z"/>
<path style="fill:#a6a1c0; stroke:none;" d="M262.333 79.6667L262.667 80.3333L262.333 79.6667M334 79L335 80L334 79z"/>
<path style="fill:#595959; stroke:none;" d="M363 79L364 80L363 79z"/>
<path style="fill:#a6a1c0; stroke:none;" d="M390 79L391 80L390 79M82 80L83 81L82 80M335 80L336 81L335 80M364 80L365 81L364 80M389 80L390 81L389 80M7 81L8 82L7 81M26 81L27 82L26 81M80 81L81 82L80 81M100 81L101 82L100 81z"/>
<path style="fill:#595959; stroke:none;" d="M242 81L243 82L242 81M259 81L260 82L259 81M272.333 81.6667L272.667 82.3333L272.333 81.6667z"/>
<path style="fill:#a6a1c0; stroke:none;" d="M336 81L337 82L336 81z"/>
<path style="fill:#595959; stroke:none;" d="M366 81L367 82L366 81M387 81L388 82L387 81z"/>
<path style="fill:#a6a1c0; stroke:none;" d="M27 82L28 83L27 82M79 82L80 83L79 82M243 82L244 83L243 82M258 82L259 83L258 82M338 82L339 83L338 82z"/>
<path style="fill:#595959; stroke:none;" d="M368 82L369 83L368 82M385 82L386 83L385 82z"/>
<path style="fill:#a6a1c0; stroke:none;" d="M28 83L29 84L28 83M77 83L78 84L77 83M245 83L246 84L245 83z"/>
<path style="fill:#595959; stroke:none;" d="M246 83L247 84L246 83M255 83L256 84L255 83z"/>
<path style="fill:#a6a1c0; stroke:none;" d="M256 83L257 84L256 83M341 83L341 84L344 84L341 83z"/>
<path style="fill:#595959; stroke:none;" d="M344.667 83.3333L345.333 83.6667L344.667 83.3333z"/>
<path style="fill:#a6a1c0; stroke:none;" d="M346 83L346 84L349 84L346 83M370 83L371 84L370 83z"/>
<path style="fill:#595959; stroke:none;" d="M371 83L372 84L371 83M382 83L383 84L382 83z"/>
<path style="fill:#a6a1c0; stroke:none;" d="M383 83L384 84L383 83M9 84L10 85L9 84M30 84L31 85L30 84M75 84L76 85L75 84M98 84L99 85L98 84M376.667 84.3333L377.333 84.6667L376.667 84.3333M32 85L33 86L32 85M73 85L74 86L73 85M33 86L34 87L33 86M71 86L72 87L71 86M35.6667 87.3333L36.3333 87.6667L35.6667 87.3333M68.6667 87.3333L69.3333 87.6667L68.6667 87.3333M96 87L97 88L96 87M12 88L13 89L12 88M38 88L39 89L38 88M65.6667 88.3333L66.3333 88.6667L65.6667 88.3333M95 88L96 89L95 88M13 89L14 90L13 89M41.6667 89.3333L42.3333 89.6667L41.6667 89.3333M61.6667 89.3333L62.3333 89.6667L61.6667 89.3333M94 89L95 90L94 89M14 90L15 91L14 90M46 90L46 91L58 91L46 90M17 93L18 94L17 93M18 94L19 95L18 94M89 94L90 95L89 94M19 95L20 96L19 95M88 95L89 96L88 95M23 98L24 99L23 98M84 98L85 99L84 98M26 100L27 101L26 100M81 100L82 101L81 100M28 101L29 102L28 101M79 101L80 102L79 101M30 102L31 103L30 102M77 102L78 103L77 102M32 103L33 104L32 103M75 103L76 104L75 103M35 104L36 105L35 104M72 104L73 105L72 104M38 105L39 106L38 105M69 105L70 106L69 105M41.6667 106.333L42.3333 106.667L41.6667 106.333M65.6667 106.333L66.3333 106.667L65.6667 106.333M47 107L47 108L51 108L47 107M57 107L57 108L61 108L57 107z"/>
</svg>
